# xmcd CD database file generated by Grip 3.2.0
# 
# Track frame offsets:
#       182
#       13127
#       26997
#       41137
#       54780
#       68040
#       80300
#       93265
#       107897
#       121100
#       132050
#       144915
#       159405
#       170067
#       182975
#       195625
#       206107
#       221002
#       234910
#       247495
#       264980
#       278777
#       296220
#       308730
#       321867
# 
# Disc length: 4457 seconds
# 
# Revision: 4
# Processed by: cddbd v1.5.1PL0 Copyright (c) Steve Scherf et al.
# Submitted via: Grip 3.2.0
# 
DISCID=73116719
DTITLE=Muddy Waters - The Chess Box - Disc 2 (1954 - 1959)
DYEAR=1989
DGENRE=Blues
TTITLE0=I Just Want To Make Love To You
TTITLE1=I'm Ready
TTITLE2=Smokestack Lightnin'
TTITLE3=Young Fashioned Ways
TTITLE4=Mannish Boy
TTITLE5=Trouble No More
TTITLE6=Forty Days And Forty Nights
TTITLE7=Just To Be With You
TTITLE8=Don't Go No Farther
TTITLE9=Diamonds At Your Feet
TTITLE10=I Love The Life I Live, I Live The Life I Love
TTITLE11=Rock Me
TTITLE12=Look What You Done
TTITLE13=Got My Mojo Working
TTITLE14=Good News
TTITLE15=Evil
TTITLE16=She's Nineteen Years Old
TTITLE17=Close To You
TTITLE18=Walkin' Thru The Park
TTITLE19=Blues Before Sunrise (with false starts, dialogue)
TTITLE20=Lonesome Road Blues
TTITLE21=Take the Bitter With The Sweet (dialogue, false start, alt. take)
TTITLE22=She's Into Something
TTITLE23=Southbound Train
TTITLE24=Double Trouble
EXTD=Muddy Waters (vocals only, except as indicated)
EXTT0=Recorded April 13, 1954\nMuddy Waters (vocal, guitar) - LittleWalter (h
EXTT0=armonica);\nOtis Spann (piano) - Jimmy Rogers (guitar);\nWille Dixon (b
EXTT0=ass) - Elgin Evans (drums)
EXTT1=Recorded September 1, 1954\nLittle Walter (harmonica) - Otis Spann (pia
EXTT1=no);\nJimmy Rogers (guitar) - Willie Dixon (bass) - \nFred Below (drums)
EXTT2=Same personnel and recording date as "I'm Ready"
EXTT3=Recorded February 3, 1955\nLittle Walter (harmonica) - Otis Spann (pian
EXTT3=o);\nJimmy Rogers (guitar) - Willie Dixon (bass);\nFrancis Clay (drums)
EXTT4=Recorded 1955\nLittle Walter (harmonica) - Jimmy Rogers (guitar);\nWill
EXTT4=ie Dixon (bass) - Francis Clay (drums)
EXTT5=Recorded 1955\nOtis Spann (piano) - Little Walter (harmonica);\nJimmy R
EXTT5=ogers (guitar) - Willie Dixon (bass);\nFrancis Clay (drums)
EXTT6=Recorded 1956\nLittle Walter (harmonica) - Jimmy Rogers (guitar);\nWill
EXTT6=ie Dixon (bass) - Francis Clay (drums)
EXTT7=Recorded 1956\nLittle Walter (harmonica) - Otis Spann (piano);\nJimmy R
EXTT7=ogers (guitar) - Willie Dixon (bass) - \nFrancis Clay(drums)
EXTT8=Same recording date and personnel as "Just To Be With You"
EXTT9=Same recording date and personnel as "Just To Be With You"
EXTT10=Recorded December 1, 1956\nJames Cotton (harmonica) - Otis Spann (piano
EXTT10=);\nJimmy Rogers (guitar) - Andrew Stephens or \nWillie Dixon (bass) - F
EXTT10=rancis Clay (drums)
EXTT11=Same personnel and recording date as\n"I Live the Life I Love"
EXTT12=Same recordind date and personnel as \n"I Live The Life I Love"
EXTT13=Same recording date and personnel as\n"I Live The Life I Love"
EXTT14=Recorded May/June 1957\nMarcus Johnson, another (tenor sax);\nOtis Spa
EXTT14=nn (piano) - Auburn "Pat" Hare (guitar);\nAndrew Stephens or Wille Dixo
EXTT14=n (bass);\nFrancis Clay (drums)
EXTT15=Same recording date and personnel as "Good News"\nexcept delete saxes 
EXTT15=and add James Cotton (harmonica)
EXTT16=Recorded November 1958\nLittle Walter (harmonica) - Otis Spann(piano);\
EXTT16=nAuburn "Pat" Hare, Luther Tucker (guitar);\nAndrewStephens or Willie 
EXTT16=Dixon (bass) - \nFrancis Clay (drums)
EXTT17=Same recording date and personnel as "She's Nineteen\nYears Old" excep
EXTT17=t add J.T. Brown (tenor sax)
EXTT18=Recorded Fall 1958\nLittle Walter (harmonica) - Otis Spann (piano);\nAu
EXTT18=burn "Pat" Hare, Luther Tucker (guitar);\nAndrew Stephens (bass) - Fran
EXTT18=cis Clay (drums)
EXTT19=Recorded early 1959\nJames Cotton (harmonica) - Otis Spann (piano);\nAu
EXTT19=burn "Pat" Hare (guitar) - Andrew Stephens (bass);\nFrancis Clay (drums
EXTT19=)
EXTT20=Recorded July 1959\nJames Cotton (harmonica) - Otis Spann (piano);\nAub
EXTT20=urn "Pat" Hare (guitar) - Andrew Stephens (bass) - \nFrancis Clay (drums
EXTT20=)
EXTT21=Same recording date and personnel as "Lonesome Road Blues"
EXTT22=Same recording date and personnel as "Lonesome Road\nBlues"
EXTT23=Same recording date and personnel as "Lonesome Road\nBlues"
EXTT24=Recorded August 1959\nJames Cotton (harmonica) - Otis Spann (piano);\nP
EXTT24=at Hare (guitar) - Andrew Stephens (bass);\nFrancis Clay or Willie Smit
EXTT24=h (drums)
PLAYORDER=
